<svg height="464pt" viewBox="-16 0 464 464" width="464pt" xmlns="http://www.w3.org/2000/svg"><path d="m144 432h128v32h-128zm0 0" fill="#fdbd40"/><path d="m160 400h96v32h-96zm0 0" fill="#f49758"/><path d="m144 208h128v192h-128zm0 0" fill="#fdbd40"/><path d="m304 432h128v32h-128zm0 0" fill="#fdbd40"/><path d="m320 400h96v32h-96zm0 0" fill="#f49758"/><path d="m304 192h128v208h-128zm0 0" fill="#fdbd40"/><path d="m232 128h-48l-40 48v32h128v-32zm0 0" fill="#f49758"/><path d="m0 432h112v32h-112zm0 0" fill="#fdbd40"/><path d="m16 400h80v32h-80zm0 0" fill="#f49758"/><path d="m0 256h112v144h-112zm0 0" fill="#fdbd40"/><path d="m432 192h-128l24-48h80zm0 0" fill="#f49758"/><path d="m328 112h80v32h-80zm0 0" fill="#fdbd40"/><path d="m408 112h-80v-18.175781c0-19.492188 5.476562-38.589844 15.808594-55.121094l24.191406-38.703125 24.191406 38.703125c10.332032 16.53125 15.808594 35.628906 15.808594 55.121094zm0 0" fill="#f49758"/><path d="m56 168c30.929688 0 56 25.070312 56 56v32h-112v-32c0-30.929688 25.070312-56 56-56zm0 0" fill="#f49758"/><g fill="#fff"><path d="m88 224h-16c0-8.835938-7.164062-16-16-16s-16 7.164062-16 16h-16c0-17.671875 14.328125-32 32-32s32 14.328125 32 32zm0 0"/><path d="m72 280h16v64h-16zm0 0"/><path d="m72 360h16v16h-16zm0 0"/><path d="m232 232h16v112h-16zm0 0"/><path d="m232 360h16v16h-16zm0 0"/><path d="m392 216h16v128h-16zm0 0"/><path d="m392 360h16v16h-16zm0 0"/></g></svg>