<svg height="511pt" viewBox="0 -25 511.99929 511" width="511pt" xmlns="http://www.w3.org/2000/svg"><path d="m362.140625 17.195312 37.058594 10.320313c17.742187 4.941406 33.074219 16.1875 43.125 31.632813l46.492187 71.460937-30.808594 40.417969-46.53125 19.304687-24.640624-21.246093 13.230468 264.53125c.570313 11.386718-8.511718 20.929687-19.910156 20.929687h-248.3125c-11.398438 0-20.484375-9.542969-19.910156-20.929687l13.230468-264.53125-24.640624 21.246093-46.53125-19.304687-30.808594-40.421875 46.488281-71.457031c10.054687-15.445313 25.386719-26.691407 43.128906-31.636719l37.058594-10.316407 27.636719 14.078126 32.117187 38.234374 46.386719 12.230469 47.410156-13.761719 30.582032-35.683593zm0 0" fill="#7eb8ff"/><path d="m100.523438 190.328125-20.09375 17.332031c-5.609376 4.84375-13.855469 5.066406-19.71875.53125l-47.183594-36.4375c-6.433594-4.964844-7.972656-14.039062-3.546875-20.847656l13.203125-20.300781zm0 0" fill="#e4e7eb"/><path d="m498.46875 171.753906-47.179688 36.4375c-5.863281 4.539063-14.113281 4.3125-19.71875-.527344l-20.09375-17.332031 77.339844-59.722656 13.203125 20.296875c4.421875 6.808594 2.882813 15.882812-3.550781 20.847656zm0 0" fill="#e4e7eb"/><path d="m23.183594 130.609375 17.8125 23.371094 48.679687-74.828125c10.054688-15.445313 25.386719-26.691406 43.125-31.636719l47.285157-13.160156-2.589844-3.078125-27.636719-14.082032s-37.054687 10.316407-37.058594 10.320313c-17.621093 4.902344-33.152343 16.308594-43.128906 31.632813zm0 0" fill="#609ce7"/><path d="m329.066406 8c-3.753906 0-7.101562 2.449219-8.15625 6.058594-8.210937 28.085937-34.199218 48.648437-64.910156 48.648437s-56.699219-20.5625-64.910156-48.648437c-1.054688-3.605469-4.402344-6.058594-8.15625-6.058594l-33.074219 9.195312c10.246094 49.214844 53.941406 86.292969 106.140625 86.292969s95.894531-37.078125 106.140625-86.292969zm0 0" fill="#e4e7eb"/><path d="m27.859375 182.820312c-.890625-3.96875-.246094-8.261718 2.125-11.910156l15.175781-23.332031-21.976562-16.96875-13.203125 20.296875c-4.066407 6.253906-3.046875 14.765625 2.398437 19.871094.363282.339844 15.480469 12.042968 15.480469 12.042968zm0 0" fill="#cacfd7"/><path d="m344.953125 295.476562h-8.882813l6.164063-6.691406c2.804687-3.046875 2.613281-7.792968-.433594-10.597656-3.050781-2.808594-7.792969-2.613281-10.601562.429688l-15.535157 16.859374h-41.8125l29.566407-29.566406 22.902343.933594c.105469.003906.210938.007812.3125.007812 4 0 7.324219-3.164062 7.492188-7.195312.167969-4.140625-3.050781-7.632812-7.191406-7.800781l-9.089844-.371094 6.28125-6.28125c2.929688-2.929687 2.929688-7.679687 0-10.609375s-7.675781-2.929688-10.605469 0l-6.28125 6.28125-.371093-9.089844c-.171876-4.136718-3.664063-7.359375-7.800782-7.1875-4.140625.167969-7.359375 3.660156-7.191406 7.800782l.9375 22.902343-29.566406 29.566407v-41.8125l16.855468-15.535157c3.046876-2.804687 3.238282-7.550781.433594-10.597656-2.808594-3.046875-7.554687-3.242187-10.601562-.433594l-6.6875 6.164063v-8.882813c0-4.144531-3.359375-7.5-7.503906-7.5-4.140626 0-7.5 3.355469-7.5 7.5v8.882813l-6.6875-6.164063c-3.046876-2.808593-7.792969-2.613281-10.601563.433594s-2.613281 7.792969.433594 10.597656l16.855469 15.535157v41.8125l-29.203126-29.207032.933594-22.902344c.167969-4.140624-3.050781-7.632812-7.1875-7.800781-4.152344-.179687-7.632812 3.050781-7.804687 7.1875l-.371094 9.089844-6.277344-6.28125c-2.933593-2.929687-7.679687-2.929687-10.609375 0-2.929687 2.929687-2.929687 7.679687 0 10.609375l6.28125 6.28125-9.089844.371094c-4.136718.167968-7.355468 3.660156-7.1875 7.800781.164063 4.035156 3.488282 7.195313 7.488282 7.195313.105468 0 .207031-.003907.3125-.007813l22.902344-.933594 29.207031 29.203125h-41.304688l-15.535156-16.855468c-2.808594-3.046876-7.550781-3.238282-10.597656-.433594-3.046875 2.808594-3.242188 7.554687-.433594 10.601562l6.164063 6.6875h-8.882813c-4.144531 0-7.5 3.359375-7.5 7.503906 0 4.140626 3.355469 7.5 7.5 7.5h8.882813l-6.164063 6.6875c-2.808594 3.046876-2.617187 7.792969.429687 10.601563 1.445313 1.328125 3.265626 1.984375 5.082032 1.984375 2.023437 0 4.039062-.8125 5.519531-2.417969l15.535156-16.855469h41.300781l-29.203124 29.207032-22.90625-.9375c-4.175782-.175782-7.628907 3.050781-7.800782 7.191406-.167968 4.136719 3.050782 7.628906 7.191406 7.796875l9.085938.371094-6.28125 6.285156c-2.929688 2.929687-2.929688 7.679687 0 10.605469 1.464844 1.464844 3.386719 2.199218 5.304688 2.199218 1.921874 0 3.839843-.734374 5.304687-2.199218l6.28125-6.28125.371094 9.089844c.164062 4.035156 3.488281 7.195312 7.492187 7.195312.101563 0 .207032 0 .308594-.003906 4.140625-.171875 7.359375-3.664063 7.191406-7.804688l-.9375-22.902344 29.207032-29.203124v41.300781l-16.855469 15.535156c-3.046875 2.808594-3.242188 7.554687-.433594 10.601563 1.480469 1.601562 3.496094 2.414062 5.519531 2.414062 1.816406 0 3.640625-.65625 5.082032-1.984375l6.6875-6.164063v8.882813c0 4.144531 3.355468 7.503906 7.5 7.503906 4.144531 0 7.503906-3.359375 7.503906-7.503906v-8.882813l6.6875 6.164063c1.441406 1.328125 3.265625 1.984375 5.082031 1.984375 2.023437 0 4.039063-.8125 5.515625-2.414062 2.808594-3.046876 2.617188-7.792969-.429688-10.601563l-16.855468-15.535156v-41.300781l29.5625 29.566406-.933594 22.902344c-.167969 4.140624 3.050781 7.632812 7.1875 7.800781.105469.003906.207031.007812.3125.007812 4 0 7.324219-3.164062 7.488281-7.195312l.371094-9.089844 6.28125 6.28125c1.464844 1.464844 3.386719 2.195313 5.304687 2.195313 1.921876 0 3.839844-.730469 5.304688-2.195313 2.929688-2.929687 2.929688-7.679687 0-10.609375l-6.28125-6.28125 9.089844-.371094c4.140625-.167968 7.359375-3.660156 7.191406-7.800781-.171875-4.140625-3.671875-7.355469-7.804688-7.1875l-22.902343.933594-29.566407-29.566407h41.8125l15.535157 16.859376c1.480469 1.601562 3.496093 2.414062 5.519531 2.414062 1.816406 0 3.640625-.65625 5.082031-1.984375 3.046875-2.808594 3.238281-7.550781.429688-10.597656l-6.164063-6.691407h8.882813c4.144531 0 7.5-3.359374 7.5-7.5.003906-4.144531-3.355469-7.5-7.496094-7.5zm0 0" fill="#e4e7eb"/><path d="m149.859375 17.195312c1.699219 8.179688 4.347656 16.011719 7.78125 23.40625l40.136719-11.164062c-.289063-.488281-.566406-.980469-.839844-1.472656-2.0625-3.683594-3.777344-7.550782-5.109375-11.558594-.628906-1.886719-1.035156-3.785156-2.34375-5.351562-1.582031-1.894532-4.039063-3.054688-6.550781-3.054688zm0 0" fill="#cacfd7"/><path d="m196.1875 161.09375v-12.183594c0-4.140625-3.359375-7.5-7.5-7.5-4.144531 0-7.503906 3.359375-7.503906 7.5v12.183594c0 4.144531 3.359375 7.5 7.503906 7.5 4.140625 0 7.5-3.355469 7.5-7.5zm0 0"/><path d="m330.816406 161.09375v-12.183594c0-4.140625-3.359375-7.5-7.503906-7.5-4.140625 0-7.5 3.359375-7.5 7.5v12.183594c0 4.144531 3.359375 7.5 7.5 7.5 4.144531 0 7.503906-3.355469 7.503906-7.5zm0 0"/><path d="m256 175.097656c8.640625 0 16.753906-3.613281 22.261719-9.914062 2.726562-3.121094 2.40625-7.859375-.710938-10.585938-3.117187-2.726562-7.859375-2.40625-10.585937.710938-2.65625 3.042968-6.652344 4.785156-10.964844 4.785156s-8.308594-1.742188-10.964844-4.785156c-2.726562-3.117188-7.464844-3.4375-10.585937-.710938-3.117188 2.726563-3.4375 7.464844-.710938 10.585938 5.507813 6.300781 13.621094 9.914062 22.261719 9.914062zm0 0"/><path d="m448.613281 55.058594c-11.050781-16.984375-27.886719-29.332032-47.402343-34.769532 0 0-71.464844-19.789062-72.144532-19.789062-7.066406 0-13.382812 4.707031-15.355468 11.449219-7.445313 25.46875-31.179688 43.257812-57.710938 43.257812s-50.265625-17.789062-57.710938-43.257812c-1.972656-6.742188-8.289062-11.449219-15.355468-11.449219-.679688 0-72.148438 19.789062-72.148438 19.789062-19.511718 5.4375-36.34375 17.785157-47.398437 34.769532l-59.695313 91.761718c-6.507812 10.015626-4.199218 23.578126 5.253906 30.871094 0 0 47.15625 36.417969 47.175782 36.433594 8.589844 6.632812 20.988281 6.316406 29.207031-.78125l31.46875-27.140625s-12.34375 246.796875-12.355469 247.039063c-.773437 15.480468 11.921875 28.808593 27.402344 28.808593h177.085938c4.144531 0 7.503906-3.359375 7.503906-7.503906 0-4.140625-3.359375-7.5-7.503906-7.5 0 0-176.691407 0-177.085938 0-7.035156 0-12.773438-6.035156-12.417969-13.054687l13.230469-264.535157c.152344-2.996093-1.5-5.792969-4.195312-7.113281-2.699219-1.316406-5.921876-.902344-8.195313 1.058594l-20.003906 17.25-67.015625-51.753906 42.714844-65.65625c9.0625-13.921876 22.859374-24.042969 38.851562-28.5l29.601562-8.242188c.015626.050781.035157.105469.050782.160156 3.347656 11.824219 8.621094 23.089844 15.511718 33.265625 2.324219 3.429688 6.988282 4.328125 10.417969 2.003907 3.433594-2.324219 4.328125-6.988282 2.003907-10.417969-5.9375-8.769531-10.585938-18.652344-13.492188-28.914063-.011719-.039062-.023438-.082031-.035156-.121094l24.585937-6.835937c.207031.117187.367188.300781.429688.519531 9.304687 31.824219 38.957031 54.050782 72.113281 54.050782 33.152344 0 62.804688-22.226563 72.109375-54.050782.066406-.21875.226563-.402344.433594-.519531l24.5625 6.832031c-4.074219 14.410156-11.421875 27.871094-21.328125 39.105469-19.003906 21.554687-47.007813 34.410156-75.777344 34.410156-23.582031 0-46.824219-8.515625-64.863281-23.695312-3.125-2.632813-7.9375-2.21875-10.570313.910156-2.667968 3.167969-2.257812 7.902344.910156 10.570313 20.855469 17.550781 47.324219 27.214843 74.523438 27.214843 32.863281 0 65.003906-14.671875 86.871094-39.332031.054687-.058594.105468-.117188.15625-.175781 11.363281-12.8125 19.78125-28.277344 24.480468-44.738281.023438-.082032.050782-.160157.074219-.246094l29.605469 8.242187c15.992188 4.460938 29.792969 14.582031 38.851562 28.503907l42.714844 65.65625-67.015625 51.753906-20.007812-17.25c-2.269531-1.960938-5.492188-2.375-8.191407-1.058594-2.695312 1.320312-4.347656 4.117188-4.195312 7.113281 0 0 13.199219 263.839844 13.230469 264.535157.351562 7.039062-5.390625 13.054687-12.417969 13.054687h-41.21875c-4.144531 0-7.5 3.359375-7.5 7.5 0 4.144531 3.355469 7.503906 7.5 7.503906h41.21875c15.484375 0 28.179688-13.359375 27.402344-28.808593l-12.359375-247.039063s31.457031 27.128906 31.46875 27.136719c8.207031 7.078125 20.625 7.429687 29.203125.789062l47.183594-36.4375c9.453124-7.296875 11.761718-20.855468 5.25-30.875zm-373.085937 146.925781c-2.886719 2.492187-7.21875 2.601563-10.230469.269531l-47.183594-36.4375c-3.3125-2.558594-4.125-7.3125-1.84375-10.820312l8.769531-13.480469 63.628907 49.136719s-13.128907 11.320312-13.140625 11.332031zm418.359375-36.167969s-47.121094 36.390625-47.191407 36.445313c-3.011718 2.324219-7.347656 2.207031-10.226562-.28125l-13.136719-11.328125 63.628907-49.136719 8.769531 13.476563c2.28125 3.511718 1.472656 8.265624-1.84375 10.824218zm0 0"/></svg>