<svg id="Capa_1" enable-background="new 0 0 512 512" height="512" viewBox="0 0 512 512" width="512" xmlns="http://www.w3.org/2000/svg"><g><g><path d="m143.599 347.636h25.812l-3.958 21.853-95.238 120.003c-7.937 10.001-22.816 10.854-31.844 1.826l-32.112-32.112c-9.324-9.324-8.06-24.785 2.656-32.47l35.226-25.265c3.378-2.423 8.014-2.044 10.953.896 2.94 2.94 7.575 3.319 10.953.896z" fill="#e49542"/><path d="m156.505 360.542-77.551 55.634c-1.483 1.065-3.216 1.587-4.939 1.587-2.193 0-4.365-.846-6.014-2.485-2.934-2.945-7.57-3.321-10.953-.898l-35.22 25.269c-10.724 7.685-11.987 23.139-2.663 32.463l-12.906-12.906c-9.325-9.324-8.061-24.778 2.663-32.463l35.22-25.269c3.383-2.422 8.019-2.047 10.953.898 1.65 1.639 3.822 2.485 6.014 2.485 1.723 0 3.456-.522 4.939-1.587l77.551-55.634 19.18-1.658z" fill="#e28424"/></g><path d="m232.376 388.331-11.075-11.075 18.089-18.09c9.864-9.863 11.645-25.052 4.334-36.936l-4.104-6.67 13.341-8.207 4.103 6.67c11.128 18.088 8.415 41.206-6.597 56.219z" fill="#dddaec"/><path d="m354.217 95.527h135.065v34.53h-135.065z" fill="#f1f1f4" transform="matrix(.707 -.707 .707 .707 43.772 331.258)"/><path d="m347.348 98.372h135.065v15.102h-135.065z" fill="#dddaec" transform="matrix(.707 -.707 .707 .707 46.617 324.389)"/><path d="m465.27 313.705c-58.576 50.195-147.14 47.572-202.581-7.869l3.924-54.982 36.62 14.438c33.536 33.536 86.754 35.69 122.818 6.462 4.275-3.464 10.465-3.17 14.355.721l25.481 25.481c4.425 4.423 4.134 11.678-.617 15.749z" fill="#756e78"/><path d="m468.924 307.068c-.345 2.485-1.566 4.866-3.644 6.641-58.578 50.193-147.145 47.573-202.59-7.873l5.321-15.564 11.114-.871c51.55 51.55 131.722 57.439 189.799 17.667z" fill="#665e66"/><path d="m462.238 47.887-13.696-13.696c-8.393-8.393-.198-22.469 11.245-19.314l27.798 7.664v23.773z" fill="#665e66"/><path d="m247.234 461.794-12.199 12.199c-8.729 8.729-23.605 5.083-27.309-6.692l-25.483-81.019-.995-40.296h41.291l29.832 94.845c2.328 7.398.348 15.478-5.137 20.963z" fill="#e49542"/><path d="m240.963 468.062-5.92 5.92c-8.729 8.729-23.609 5.085-27.316-6.683l-25.478-81.028-1.002-40.294h13.971l.741 29.999 25.488 81.017c2.736 8.699 11.57 12.97 19.516 11.069z" fill="#e28424"/><path d="m318.702 249.823-136.458 136.458-33.549-33.549c-16.819-16.819-16.819-44.087 0-60.906l91.596-91.596c7.958-7.958 20.86-7.958 28.817 0l52.632 8.218z" fill="#756e78"/><path d="m288.209 219.329c-7.957-7.957-20.863-7.957-28.819 0l-91.595 91.595c-16.822 16.822-16.822 44.085 0 60.907l-19.098-19.098c-16.822-16.822-16.822-44.085 0-60.907l91.595-91.595c7.957-7.957 20.863-7.957 28.819 0z" fill="#665e66"/><path d="m407.154 186.813-3.028 3.644-10.076 12.092-10.223 12.269-10.066 12.092-10.222 12.269-10.056 12.081-.981 1.18c-7.601 9.137-21.426 9.763-29.832 1.358l-33.173-33.173 88.838-88.838 27.566 27.566c7.456 7.454 7.999 19.357 1.253 27.46z" fill="#986b54"/><path d="m269.109 171.413 60.017-60.017c7.958-7.958 20.86-7.958 28.817 0l20.393 20.393-19.819 51.062-69.016 37.772-20.393-20.393c-7.957-7.957-7.957-20.859.001-28.817z" fill="#986b54"/><path d="m374.621 128.071c-7.957-7.957-20.863-7.957-28.819 0l-60.019 60.019c-7.957 7.956-7.957 20.863 0 28.819l-16.675-16.675c-7.957-7.956-7.957-20.863 0-28.819l60.019-60.019c7.956-7.957 20.852-7.957 28.819 0z" fill="#845c47"/><path d="m463.229 32.629h42.837v34.53h-42.837z" fill="#dddaec" transform="matrix(.707 -.707 .707 .707 106.67 357.311)"/><path d="m456.36 35.474h42.837v15.102h-42.837z" fill="#d0cee7" transform="matrix(.707 -.707 .707 .707 109.515 350.442)"/><g fill="#845c47"><path d="m404.126 190.457-10.076 12.092-27.671-27.671c-3.049-3.06-3.049-8.019 0-11.079 3.06-3.059 8.019-3.059 11.079 0z"/><path d="m383.827 214.818-10.066 12.092-29.707-29.707c-3.049-3.059-3.049-8.019 0-11.079 3.059-3.06 8.019-3.06 11.079 0z"/><path d="m363.539 239.179-10.056 12.081-31.743-31.743c-3.059-3.049-3.059-8.009 0-11.068 3.049-3.059 8.009-3.059 11.068 0z"/></g><path d="m271.413 263.128-49.001 49.001c-5.773 5.773-15.134 5.773-20.907 0-5.773-5.773-5.773-15.134 0-20.907l49.001-49.001c5.773-5.773 15.134-5.773 20.907 0 5.773 5.773 5.773 15.133 0 20.907z" fill="#544f57"/></g></svg>